<mxfile host="app.diagrams.net" modified="2024-03-15T16:01:54.055Z" agent="Mozilla/5.0 (Windows NT 10.0; Win64; x64) AppleWebKit/537.36 (KHTML, like Gecko) Chrome/122.0.0.0 Safari/537.36" version="24.0.4" etag="06rTnFcFp7PrKCsXQLkv" type="github">
  <diagram name="Page-1" id="lDHy2j6T6MB06MGFGh9W">
    <mxGraphModel>
      <root>
        <mxCell id="0" />
        <mxCell id="1" parent="0" />
      </root>
    </mxGraphModel>
  </diagram>
</mxfile>
